<svg height="32" viewBox="0 0 32 32" width="32" xmlns="http://www.w3.org/2000/svg"><path d="m5.948 5.609c.99.807 1.365.75 3.234.625l17.62-1.057c.375 0 .063-.375-.063-.438l-2.927-2.115c-.557-.438-1.307-.932-2.74-.813l-17.057 1.25c-.625.057-.75.37-.5.62zm1.057 4.11v18.536c0 .995.495 1.37 1.615 1.307l19.365-1.12c1.12-.063 1.25-.745 1.25-1.557v-18.411c0-.813-.313-1.245-1-1.182l-20.234 1.182c-.75.063-.995.432-.995 1.24zm19.115.989c.125.563 0 1.12-.563 1.188l-.932.188v13.682c-.813.438-1.557.688-2.177.688-1 0-1.25-.313-1.995-1.245l-6.104-9.583v9.271l1.932.438s0 1.12-1.557 1.12l-4.297.25c-.125-.25 0-.875.438-.995l1.12-.313v-12.255l-1.557-.125c-.125-.563.188-1.37 1.057-1.432l4.609-.313 6.354 9.708v-8.589l-1.62-.188c-.125-.682.37-1.182.995-1.24zm-23.537-9.328 17.745-1.307c2.177-.188 2.74-.063 4.109.932l5.667 3.984c.932.682 1.245.87 1.245 1.615v21.839c0 1.37-.5 2.177-2.24 2.302l-20.615 1.245c-1.302.063-1.927-.125-2.615-.995l-4.172-5.417c-.745-.995-1.057-1.74-1.057-2.609v-19.411c0-1.12.5-2.052 1.932-2.177z"/></svg>