<svg id="Capa_1" data-name="Capa 1" xmlns="http://www.w3.org/2000/svg" viewBox="0 0 204 204"><defs><style>.cls-1{fill:#480995;}</style></defs><title>Sin título-1</title><path class="cls-1" d="M175,125a51,51,0,1,1-51-51,51,51,0,0,1,51,51M124,23a6.38,6.38,0,0,1,6.38,6.37v25.5a6.38,6.38,0,1,1-12.75,0V29.37A6.37,6.37,0,0,1,124,23m0,165.75a6.38,6.38,0,0,1,6.38,6.37v25.5a6.38,6.38,0,1,1-12.75,0v-25.5a6.37,6.37,0,0,1,6.37-6.37M226,125a6.37,6.37,0,0,1-6.37,6.37h-25.5a6.38,6.38,0,1,1,0-12.75h25.5A6.38,6.38,0,0,1,226,125M60.25,125a6.37,6.37,0,0,1-6.37,6.37H28.38a6.38,6.38,0,1,1,0-12.75h25.5A6.38,6.38,0,0,1,60.25,125M196.13,52.87a6.38,6.38,0,0,1,0,9l-18,18a6.38,6.38,0,0,1-9-9l18-18a6.38,6.38,0,0,1,9,0M78.92,170.08a6.4,6.4,0,0,1,0,9l-18,18a6.38,6.38,0,0,1-9-9l18-18a6.4,6.4,0,0,1,9,0m117.21,27a6.38,6.38,0,0,1-9,0l-18-18a6.38,6.38,0,0,1,9-9l18,18a6.38,6.38,0,0,1,0,9M78.92,79.93a6.38,6.38,0,0,1-9,0l-18-18a6.38,6.38,0,0,1,8.86-9.17l.16.15,18,18a6.39,6.39,0,0,1,0,9h0" transform="translate(-22 -23)"/></svg>